<svg version="1.0" xmlns="http://www.w3.org/2000/svg"
 width="668.000000pt" height="953.000000pt" viewBox="0 0 668.000000 953.000000"
 preserveAspectRatio="xMidYMid meet">

<g transform="translate(0.000000,953.000000) scale(0.100000,-0.100000)"
fill="#61dafb" stroke="none">
<path d="M3000 8387 c-3 -3 -51 -8 -107 -11 -57 -3 -118 -12 -139 -21 -20 -8
-42 -15 -50 -15 -7 0 -24 -10 -38 -22 -35 -33 -54 -48 -61 -48 -13 0 -3 54 12
66 10 7 15 16 10 20 -8 9 -48 -11 -79 -40 -12 -11 -36 -27 -52 -36 -17 -8 -37
-29 -44 -45 -15 -34 -68 -75 -97 -75 -18 0 -18 1 1 21 20 22 30 69 15 69 -6 0
-25 -20 -43 -45 -18 -24 -41 -44 -50 -45 -10 0 -18 -7 -18 -15 0 -8 -6 -12
-14 -9 -10 4 -16 -2 -18 -18 -2 -13 -11 -24 -23 -27 -11 -2 -24 -10 -28 -17
-5 -8 -13 -12 -18 -8 -6 3 -24 -8 -40 -24 -17 -17 -36 -29 -44 -26 -16 6 -55
-17 -108 -63 -20 -18 -43 -33 -51 -33 -7 0 -19 -6 -25 -14 -6 -7 -25 -16 -42
-20 -32 -6 -112 -81 -106 -99 2 -6 -13 -28 -32 -48 -20 -21 -47 -52 -61 -70
-14 -17 -37 -45 -52 -62 -21 -24 -26 -37 -21 -60 4 -21 3 -28 -5 -23 -7 4 -12
1 -12 -8 0 -9 5 -16 10 -16 6 0 10 -6 10 -14 0 -8 5 -16 11 -18 12 -4 1 -38
-12 -38 -5 0 -9 14 -9 32 0 30 -1 30 -19 14 -12 -11 -16 -25 -13 -41 3 -18 0
-25 -12 -25 -9 0 -16 -6 -16 -13 0 -7 -20 -35 -45 -64 -25 -28 -45 -54 -45
-56 0 -3 -14 -36 -31 -73 -17 -37 -33 -86 -36 -108 -2 -23 -16 -88 -31 -146
-23 -95 -25 -121 -23 -270 1 -106 -3 -195 -12 -250 -18 -108 -19 -113 -20
-245 -2 -117 13 -251 34 -300 7 -16 16 -61 19 -100 11 -104 20 -135 43 -135
28 -1 69 -91 48 -104 -6 -4 -4 -14 7 -26 9 -11 24 -39 32 -62 9 -24 20 -43 26
-43 17 0 44 -32 44 -53 0 -11 9 -31 20 -45 11 -14 20 -30 20 -36 0 -6 5 -11
10 -11 6 0 10 -9 10 -19 0 -32 12 -55 20 -40 13 20 32 -28 35 -88 4 -57 0 -64
-73 -139 -6 -7 -12 -17 -12 -23 0 -6 -9 -15 -20 -21 -29 -16 -25 -56 15 -141
48 -104 83 -139 137 -139 17 0 28 -5 28 -14 0 -13 20 -26 41 -26 5 0 9 13 9
29 0 16 4 31 10 33 6 2 11 141 14 372 3 302 1 380 -11 430 -23 93 -16 285 9
270 21 -13 28 23 27 136 0 63 4 128 10 143 6 16 11 61 11 101 0 52 4 77 15 86
9 7 12 22 9 39 -6 29 31 131 47 131 5 0 9 16 9 35 0 19 4 35 9 35 12 0 39 92
52 174 6 32 21 82 33 110 13 28 27 61 30 73 4 13 13 20 24 18 12 -2 17 4 18
22 2 32 10 39 30 23 13 -11 17 -11 24 0 4 7 15 10 23 7 9 -3 20 0 26 7 14 17
61 8 61 -10 0 -8 5 -14 10 -14 6 0 10 6 10 14 0 22 51 59 64 46 5 -5 19 -10
29 -10 13 0 17 -5 14 -14 -4 -9 2 -17 13 -21 21 -7 60 10 60 25 0 6 7 10 15
10 8 0 15 -7 15 -15 0 -12 19 -14 118 -10 64 2 137 9 162 14 35 7 48 6 61 -5
18 -16 105 -19 114 -4 13 21 55 9 86 -25 18 -19 35 -32 40 -29 4 2 16 -7 25
-21 9 -14 23 -24 30 -21 9 3 14 -2 14 -14 0 -11 6 -20 14 -20 9 0 12 -8 8 -27
-5 -27 -5 -27 13 -9 11 10 19 30 20 45 0 19 6 27 23 29 18 3 22 -1 22 -22 0
-14 -4 -28 -10 -31 -5 -3 -10 -17 -10 -31 0 -25 18 -32 36 -14 8 8 15 6 23 -4
14 -16 6 -40 -10 -31 -18 12 -8 -15 16 -40 13 -15 30 -25 37 -22 10 4 10 6 1
6 -31 2 -9 19 32 26 40 5 48 3 65 -17 18 -23 19 -23 33 -3 13 16 17 17 31 6
11 -9 20 -10 29 -4 22 18 53 21 72 7 27 -20 38 -17 32 6 -5 20 11 26 52 20 8
-1 24 3 35 8 46 20 87 30 121 28 22 -1 35 3 35 11 0 15 56 18 65 4 3 -5 24 -8
46 -7 34 3 42 0 49 -18 5 -11 9 -15 9 -8 2 25 32 11 77 -35 39 -41 51 -48 84
-48 29 0 40 -4 43 -17 3 -10 14 -18 27 -18 11 0 33 -12 48 -26 15 -14 41 -32
59 -40 17 -7 44 -25 59 -39 15 -14 33 -23 41 -21 7 3 17 -3 22 -12 10 -16 10
-16 11 1 0 24 10 22 94 -23 41 -22 83 -40 94 -40 12 0 28 -7 36 -16 9 -8 21
-12 26 -9 6 4 21 -4 33 -18 12 -13 38 -27 58 -31 30 -5 40 -14 57 -49 33 -67
52 -142 67 -261 7 -61 18 -124 25 -141 27 -66 36 -141 29 -260 -3 -66 -4 -156
-3 -200 2 -44 6 -168 9 -275 6 -214 12 -299 25 -319 8 -15 23 25 35 92 3 20
10 37 15 37 6 0 10 -4 10 -10 0 -17 16 -11 44 15 17 16 26 34 26 56 0 44 -21
112 -39 125 -33 25 -19 151 23 209 11 16 20 36 18 42 -2 7 5 13 15 13 12 0 20
8 21 23 15 119 23 143 66 193 88 104 103 151 115 374 4 74 14 149 21 165 17
40 24 375 7 375 -8 0 -8 3 0 11 7 7 8 21 4 33 -9 27 -7 169 3 218 7 30 4 40
-13 57 -12 12 -20 24 -19 29 4 15 -16 57 -49 103 -28 39 -33 55 -28 78 4 19 1
33 -9 44 -9 9 -16 33 -16 57 0 27 -5 43 -15 46 -9 4 -13 13 -10 23 3 10 -8 44
-25 77 -16 32 -30 67 -30 77 0 9 -9 37 -21 62 -13 28 -18 52 -14 66 13 42 -25
124 -86 186 -72 74 -93 93 -105 93 -5 0 -29 18 -53 40 -24 22 -49 40 -55 40
-7 0 -22 18 -35 40 -12 22 -26 40 -31 40 -13 0 -57 48 -86 92 -13 21 -41 46
-62 57 -33 17 -92 78 -92 95 0 11 -76 77 -118 102 -23 15 -59 30 -80 35 -77
19 -200 38 -287 44 -49 4 -106 9 -125 10 -94 10 -148 16 -180 20 -162 19 -296
26 -380 18 -52 -5 -120 -8 -150 -6 -30 2 -95 6 -145 9 -49 3 -92 3 -95 1z
m-560 -1421 c0 -3 -4 -8 -10 -11 -5 -3 -10 -1 -10 4 0 6 5 11 10 11 6 0 10 -2
10 -4z m288 -27 c-2 -6 -7 -10 -11 -10 -4 1 -15 1 -24 1 -15 0 -16 2 -3 10 20
13 43 13 38 -1z m-583 -29 c3 -5 1 -10 -4 -10 -6 0 -11 5 -11 10 0 6 2 10 4
10 3 0 8 -4 11 -10z m925 -10 c0 -5 -5 -10 -11 -10 -5 0 -7 5 -4 10 3 6 8 10
11 10 2 0 4 -4 4 -10z m255 -221 c4 -6 5 -13 2 -16 -8 -7 -47 7 -47 18 0 13
37 11 45 -2z m-1640 -1798 c3 -16 15 -46 26 -67 10 -21 19 -44 19 -52 0 -8 8
-27 17 -43 13 -21 14 -32 6 -40 -13 -13 -36 -3 -28 12 4 5 2 9 -4 9 -5 0 -12
14 -16 30 -4 17 -10 30 -14 30 -9 0 -48 72 -46 85 5 30 18 65 25 65 5 0 11
-13 15 -29z"/>
<path d="M1710 7794 c0 -14 4 -23 10 -19 6 3 10 15 10 26 0 10 -4 19 -10 19
-5 0 -10 -12 -10 -26z"/>
<path d="M3356 6621 c-20 -8 -12 -18 14 -17 16 1 27 19 13 23 -4 1 -17 -2 -27
-6z"/>
<path d="M2590 6200 c0 -5 7 -10 15 -10 8 0 15 5 15 10 0 6 -7 10 -15 10 -8 0
-15 -4 -15 -10z"/>
<path d="M4528 5919 c-2 -6 -23 -12 -47 -14 -24 -1 -46 -8 -50 -13 -4 -6 -28
-10 -55 -8 -44 2 -106 -11 -122 -26 -3 -4 -21 -4 -39 -1 -25 4 -38 0 -54 -16
-16 -16 -33 -22 -64 -21 -64 2 -130 -11 -150 -28 -16 -14 -19 -14 -27 -2 -6 8
-10 11 -10 5 0 -5 -16 -28 -35 -49 l-35 -40 -12 31 c-10 28 -16 31 -47 30 -44
-2 -66 -29 -62 -73 1 -18 -3 -42 -9 -54 -10 -18 -9 -22 9 -27 19 -5 21 -11 17
-49 -2 -24 0 -41 5 -38 13 8 11 -23 -2 -49 -7 -12 -14 -50 -16 -85 l-4 -65 38
8 c21 4 44 12 51 17 21 18 25 2 7 -35 -16 -34 -16 -35 8 -61 20 -21 32 -26 65
-23 22 2 48 -3 58 -10 10 -7 13 -13 7 -13 -12 0 -11 -39 1 -58 4 -7 15 -12 24
-12 9 0 23 -13 30 -30 8 -16 20 -30 28 -30 8 0 19 -10 25 -23 6 -13 16 -24 22
-24 7 0 33 -3 59 -7 58 -7 80 0 76 27 -2 11 3 22 10 24 6 3 12 -1 12 -7 0 -7
15 -1 34 14 21 15 37 22 41 16 10 -16 38 -12 31 5 -4 12 3 15 32 14 70 -3 172
36 214 81 11 12 27 19 36 16 9 -3 24 -1 32 4 13 9 13 11 0 20 -11 7 -6 10 20
10 31 0 36 3 35 23 -1 12 -5 31 -10 41 -6 13 -5 21 3 24 19 6 14 51 -8 64 -11
7 -20 20 -20 29 0 8 -11 22 -25 29 -14 7 -25 17 -25 21 0 10 -99 72 -124 77
-12 2 -41 5 -66 8 -25 2 -74 8 -110 13 -36 6 -82 12 -102 15 -20 2 -47 7 -58
11 -21 7 -21 7 -2 25 12 12 28 16 45 13 15 -3 27 -1 27 5 0 6 9 8 20 5 11 -3
20 -1 20 4 0 13 106 37 145 34 17 -2 39 -11 51 -22 11 -10 28 -19 37 -19 9 0
17 -7 17 -16 0 -14 3 -14 15 -4 11 9 15 9 15 1 0 -7 4 -10 9 -6 5 3 12 1 16
-5 11 -17 25 -11 35 15 5 14 17 25 25 25 20 0 63 -27 92 -57 23 -24 48 -30 58
-13 10 17 25 11 25 -9 0 -25 20 -38 31 -20 11 18 12 89 1 89 -12 0 -52 78 -52
102 0 23 -15 40 -57 62 -18 9 -36 22 -40 29 -8 12 -148 87 -163 87 -5 0 -10
-5 -12 -11z m78 -286 c-10 -10 -19 5 -10 18 6 11 8 11 12 0 2 -7 1 -15 -2 -18z
m-251 -98 c107 -25 245 -105 245 -142 0 -7 5 -13 10 -13 6 0 10 -4 10 -10 0
-5 -7 -10 -15 -10 -8 0 -14 6 -12 13 1 6 -6 11 -15 9 -9 -1 -19 2 -23 8 -3 5
-15 10 -26 10 -11 0 -19 7 -19 16 0 9 -6 14 -13 11 -19 -7 -56 15 -76 47 -15
23 -19 25 -25 11 -4 -11 -12 -14 -25 -10 -10 3 -32 7 -49 9 -17 3 -39 9 -50
15 -12 6 -29 11 -40 11 -19 0 -36 22 -26 33 7 6 112 1 149 -8z m-575 1 c0 -3
-4 -8 -10 -11 -5 -3 -10 -1 -10 4 0 6 5 11 10 11 6 0 10 -2 10 -4z m450 -136
c0 -5 -4 -10 -10 -10 -5 0 -10 5 -10 10 0 6 5 10 10 10 6 0 10 -4 10 -10z
m-200 -42 c0 -21 12 -45 36 -74 20 -25 30 -44 22 -44 -7 0 -19 -9 -26 -20 -7
-12 -23 -20 -38 -20 -14 0 -23 4 -19 10 3 6 15 10 26 10 33 0 21 16 -33 41
-66 31 -72 59 -20 106 40 37 52 35 52 -9z m357 24 c50 -40 79 -142 39 -142 -6
0 -4 -5 4 -10 12 -8 10 -10 -8 -10 -13 0 -20 -4 -17 -10 4 -6 -8 -10 -30 -10
-22 0 -38 -6 -41 -15 -5 -13 -8 -13 -21 0 -18 19 -43 19 -43 2 0 -16 -36 -15
-52 1 -20 20 -37 14 -31 -9 5 -19 3 -20 -14 -10 -11 5 -23 7 -27 3 -10 -9 -25
18 -19 35 3 8 22 13 50 13 79 0 143 53 165 136 7 24 15 44 18 44 3 0 15 -8 27
-18z m-277 -2 c0 -5 -4 -10 -10 -10 -5 0 -10 5 -10 10 0 6 5 10 10 10 6 0 10
-4 10 -10z m-260 -81 c0 -5 -4 -9 -10 -9 -5 0 -10 7 -10 16 0 8 5 12 10 9 6
-3 10 -10 10 -16z m455 -159 c3 -5 -1 -10 -10 -10 -9 0 -13 5 -10 10 3 6 8 10
10 10 2 0 7 -4 10 -10z m60 0 c3 -5 1 -10 -4 -10 -6 0 -11 5 -11 10 0 6 2 10
4 10 3 0 8 -4 11 -10z"/>
<path d="M2301 5866 c-14 -14 -27 -24 -29 -21 -3 3 -24 -6 -46 -19 -23 -13
-54 -26 -71 -30 -40 -10 -52 -22 -60 -57 -4 -16 -14 -35 -23 -41 -23 -17 -62
-97 -62 -126 0 -20 4 -22 23 -17 12 4 27 13 33 21 6 8 16 14 21 14 5 0 15 11
21 24 9 19 17 23 51 22 23 0 41 -4 41 -8 0 -5 14 -8 31 -8 24 0 30 4 25 15 -4
11 2 15 22 15 16 0 33 5 38 10 8 8 20 7 39 -2 22 -10 29 -10 33 0 6 18 63 15
85 -5 11 -10 37 -19 61 -20 79 -3 200 -43 210 -70 3 -7 1 -13 -3 -13 -5 0 -11
6 -14 13 -3 9 -7 9 -20 -1 -10 -8 -55 -16 -114 -19 -114 -6 -260 -41 -299 -72
-15 -11 -31 -21 -36 -21 -18 0 -78 -75 -78 -97 0 -13 2 -23 5 -23 15 0 103 48
120 66 56 58 198 111 302 114 86 2 93 1 93 -14 0 -16 -27 -29 -41 -20 -6 3
-16 0 -24 -6 -12 -10 -18 -10 -30 0 -13 11 -18 10 -28 -3 -7 -9 -39 -26 -72
-37 -33 -12 -80 -32 -105 -43 -25 -12 -48 -22 -52 -22 -3 0 -10 -3 -14 -7 -4
-5 -16 -8 -26 -8 -11 0 -32 -13 -47 -28 -16 -15 -33 -26 -40 -24 -6 2 -11 -1
-11 -7 0 -6 -11 -11 -25 -11 -14 0 -26 -6 -27 -12 -6 -52 -4 -66 8 -61 8 3 21
-2 29 -11 20 -20 32 -20 69 -1 28 15 28 15 22 -10 -5 -18 -2 -25 9 -25 8 0 15
5 15 11 0 5 4 8 9 5 4 -3 6 -17 4 -30 -5 -23 -1 -26 36 -32 23 -4 41 -10 41
-15 0 -5 11 -9 25 -9 14 0 36 0 50 0 14 0 25 -4 25 -9 0 -7 8 -11 50 -25 3 -1
37 -12 76 -25 68 -23 73 -23 118 -8 26 9 54 13 62 10 8 -3 22 1 32 10 9 8 36
18 59 22 48 8 67 25 58 55 -3 11 -2 20 3 20 9 0 10 36 1 45 -3 2 -22 0 -43 -6
-44 -12 -75 3 -35 17 30 9 147 12 174 3 44 -14 56 8 30 57 -19 38 -20 65 -2
39 13 -16 15 -14 35 27 27 54 27 74 3 138 -11 27 -15 50 -11 50 5 0 11 -6 13
-12 6 -15 48 31 43 47 -1 6 4 15 13 22 14 10 14 13 -3 32 -11 12 -14 21 -8 21
7 0 12 5 12 10 0 6 -6 10 -14 10 -8 0 -18 9 -21 20 -4 11 -11 18 -16 15 -5 -4
-9 -2 -9 3 0 5 -21 23 -46 41 -38 28 -52 32 -81 28 -25 -4 -50 0 -79 13 -24
11 -63 20 -87 20 -25 0 -61 7 -80 15 -20 8 -56 15 -81 15 -26 0 -46 5 -48 12
-4 10 -10 10 -32 0 -39 -17 -76 -16 -76 4 0 14 -8 15 -55 9 -45 -5 -56 -4 -61
9 -3 9 -15 16 -26 16 -12 0 -26 7 -32 16 -10 13 -14 12 -35 -10z m482 -380 c2
-10 -51 -31 -59 -23 -2 2 -2 12 2 21 7 18 53 19 57 2z m77 -26 c0 -5 -7 -10
-15 -10 -8 0 -15 5 -15 10 0 6 7 10 15 10 8 0 15 -4 15 -10z m38 -112 c33 -26
42 -39 42 -64 0 -27 -6 -34 -54 -57 -30 -15 -59 -27 -65 -27 -21 0 -61 -24
-61 -37 0 -18 -10 -16 -26 5 -12 16 -13 15 -14 -5 0 -20 -3 -21 -26 -13 -26
10 -74 4 -74 -10 0 -4 -13 -7 -30 -6 -18 1 -30 6 -30 15 0 11 -3 11 -15 1 -12
-10 -16 -9 -21 3 -3 8 -13 13 -23 10 -20 -5 -101 72 -101 96 0 19 39 61 57 61
7 0 13 5 13 10 0 26 30 5 58 -39 40 -66 72 -85 138 -85 81 0 140 52 151 132 7
52 24 54 81 10z"/>
<path d="M4630 5579 c0 -5 5 -7 10 -4 6 3 10 8 10 11 0 2 -4 4 -10 4 -5 0 -10
-5 -10 -11z"/>
<path d="M5251 5425 c-39 -41 -41 -47 -35 -86 7 -42 9 -66 12 -155 1 -28 9
-59 18 -70 15 -19 15 -19 11 2 -2 12 2 32 9 45 7 13 13 39 14 57 0 17 5 32 10
32 6 0 10 9 10 20 0 11 7 23 15 26 8 4 12 10 10 15 -3 4 3 27 15 51 11 23 20
57 20 75 0 31 -2 33 -33 33 -27 0 -42 -9 -76 -45z"/>
<path d="M1343 5422 c-16 -11 -33 -49 -33 -75 0 -13 8 -51 18 -83 11 -33 25
-100 32 -151 7 -51 17 -90 21 -87 5 3 14 -16 20 -41 6 -26 16 -42 20 -38 10
10 28 157 23 193 -2 14 -6 70 -9 125 -5 84 -9 103 -28 123 -28 31 -50 42 -64
34z"/>
<path d="M5123 4705 c-24 -24 -31 -49 -11 -43 6 2 16 13 22 23 6 11 18 25 26
32 13 11 13 12 0 12 -8 -1 -25 -11 -37 -24z"/>
<path d="M3840 4640 c0 -5 9 -14 20 -20 17 -9 20 -8 20 10 0 13 -7 20 -20 20
-11 0 -20 -4 -20 -10z"/>
<path d="M1540 4612 c0 -4 14 -24 31 -45 35 -42 81 -53 72 -16 -3 11 -13 23
-22 26 -9 4 -28 15 -43 25 -28 20 -38 22 -38 10z"/>
<path d="M3025 4600 c-3 -5 -1 -10 4 -10 6 0 11 5 11 10 0 6 -2 10 -4 10 -3 0
-8 -4 -11 -10z"/>
<path d="M3890 4601 c0 -5 9 -19 21 -32 16 -19 19 -20 15 -6 -3 10 -6 22 -6
27 0 4 -7 10 -15 14 -8 3 -15 2 -15 -3z"/>
<path d="M2981 4543 c-20 -24 -22 -34 -17 -80 l6 -53 -27 5 c-16 3 -22 2 -15
-1 7 -3 12 -26 12 -56 0 -49 2 -53 63 -112 62 -61 95 -78 179 -91 44 -7 49
-13 51 -64 1 -25 5 -37 13 -34 20 7 27 -17 9 -31 -28 -20 -15 -107 21 -146 38
-39 49 -38 50 7 0 20 6 39 12 41 7 2 13 11 13 20 1 10 4 4 8 -13 7 -35 35 -40
39 -7 2 12 10 22 17 22 8 0 19 8 25 18 8 14 9 12 4 -10 -4 -21 -1 -27 15 -33
11 -3 29 -17 40 -31 26 -33 41 -30 74 13 40 53 33 89 -23 118 -26 13 -29 13
-32 -2 -2 -13 -9 -8 -25 20 -12 20 -27 37 -33 37 -33 0 -87 -62 -82 -96 1 -6
-5 -11 -13 -11 -8 0 -15 3 -15 6 0 3 -14 12 -31 20 -19 8 -28 18 -25 27 3 8
-3 23 -14 34 -11 11 -20 26 -20 33 0 31 72 69 86 45 3 -4 25 -8 50 -8 37 0 44
-3 44 -20 0 -11 5 -20 10 -20 6 0 10 5 10 10 0 6 9 10 20 10 11 0 20 -4 20
-10 0 -18 22 -10 27 10 3 13 17 22 39 26 19 3 34 10 34 14 0 4 12 12 26 19 19
8 23 15 16 24 -15 18 6 42 51 56 21 7 44 10 52 7 19 -7 19 -32 0 -40 -18 -6
-20 -32 -4 -42 6 -3 15 0 20 7 5 8 9 11 9 7 0 -12 74 26 101 52 15 14 31 42
37 62 8 31 7 39 -7 52 -26 24 -131 21 -181 -4 -22 -11 -49 -20 -60 -20 -12 0
-19 -4 -16 -9 3 -5 -11 -9 -32 -8 -20 0 -88 -5 -150 -11 -106 -12 -116 -11
-157 7 -25 11 -75 23 -112 26 -62 6 -71 5 -105 -18 -20 -14 -45 -23 -55 -21
-10 3 -27 27 -39 53 -26 57 -19 135 14 181 25 34 27 40 10 40 -7 0 -24 -12
-37 -27z m352 -310 c-7 -2 -19 -2 -25 0 -7 3 -2 5 12 5 14 0 19 -2 13 -5z
m-10 -30 c-7 -2 -21 -2 -30 0 -10 3 -4 5 12 5 17 0 24 -2 18 -5z m173 -280
c-10 -10 -19 5 -10 18 6 11 8 11 12 0 2 -7 1 -15 -2 -18z"/>
<path d="M4987 4453 c-3 -5 -6 -19 -7 -33 -5 -53 -1 -60 31 -60 42 0 119 20
119 32 0 12 -60 8 -78 -5 -9 -7 -11 -5 -6 7 4 9 3 16 -2 15 -23 -4 -34 3 -34
20 0 21 -15 36 -23 24z"/>
<path d="M1780 4387 l0 -67 -32 0 c-17 0 -28 -3 -25 -7 4 -3 2 -12 -4 -20 -9
-11 -2 -13 39 -13 76 0 81 4 70 55 -5 24 -18 60 -29 81 l-19 38 0 -67z"/>
<path d="M3740 4050 c0 -16 -4 -30 -10 -30 -5 0 -10 11 -10 25 0 14 -4 25 -9
25 -9 0 -9 -178 0 -225 4 -18 -1 -20 -66 -20 -72 0 -120 -21 -127 -54 -2 -10
-11 -7 -33 12 -28 23 -49 30 -125 42 -14 2 -37 7 -52 11 -21 5 -28 3 -28 -9 0
-17 -21 -25 -100 -38 -118 -21 -130 -21 -130 -9 0 7 -6 6 -16 -4 -22 -22 -45
-20 -51 5 -3 12 -11 18 -19 15 -8 -3 -14 -2 -14 3 0 5 18 11 40 15 44 7 85 40
76 62 -8 21 -44 17 -58 -6 -17 -27 -28 -25 -28 6 0 19 -4 25 -15 21 -8 -4 -17
-2 -20 3 -10 16 -23 11 -30 -11 -4 -11 -18 -25 -31 -31 -41 -19 -44 -88 -3
-88 22 0 25 -22 5 -39 -11 -9 -20 -10 -36 -1 -11 6 -35 8 -55 4 -39 -7 -47 2
-12 16 19 8 17 9 -16 9 -21 1 -36 -3 -32 -8 3 -5 1 -12 -5 -16 -23 -14 -6 -24
48 -27 39 -2 56 -7 54 -16 -1 -9 6 -11 25 -7 23 5 25 4 11 -5 -10 -6 -18 -21
-18 -33 0 -13 -5 -28 -12 -35 -13 -13 8 -17 61 -12 18 1 22 -2 18 -14 -7 -19
-6 -19 27 -6 25 9 26 8 24 -19 -1 -19 10 -42 37 -77 22 -27 43 -50 48 -52 4
-2 7 -9 7 -17 0 -7 14 -15 30 -18 17 -4 30 -11 30 -16 0 -12 -53 -9 -62 4 -5
6 -11 5 -16 -3 -6 -8 -25 -12 -50 -11 -28 2 -47 -3 -61 -15 -11 -10 -34 -21
-51 -25 -17 -3 -31 -9 -30 -13 0 -5 0 -32 0 -61 l0 -53 53 -13 c52 -14 129
-49 135 -63 7 -16 47 -7 71 16 23 21 37 25 106 26 140 3 145 3 176 -31 41 -44
39 -86 -4 -126 -18 -16 -45 -33 -60 -37 -17 -4 -29 -15 -33 -31 -10 -41 -23
-28 -17 16 5 33 3 41 -8 37 -8 -3 -13 -15 -11 -27 2 -20 -2 -22 -35 -19 -35 3
-38 1 -38 -22 0 -23 3 -25 38 -22 68 6 35 -25 -45 -42 -21 -5 -28 -3 -28 9 0
11 -11 15 -45 15 -32 0 -45 -4 -45 -14 0 -7 -7 -19 -15 -26 -8 -7 -15 -25 -15
-40 0 -15 -9 -35 -20 -45 -21 -19 -18 -35 5 -35 8 0 28 -13 45 -29 28 -25 30
-30 17 -42 -13 -12 -12 -17 2 -39 9 -14 23 -30 31 -37 10 -8 11 -12 3 -13 -10
0 -10 -6 -1 -26 9 -20 9 -30 0 -45 -15 -23 -4 -25 25 -4 12 8 24 12 26 8 6
-10 -49 -73 -63 -73 -5 0 -10 -4 -10 -10 0 -5 -12 -10 -27 -10 l-27 0 37 -38
c31 -31 37 -45 37 -80 0 -41 -1 -42 -35 -42 -19 0 -35 -4 -35 -10 0 -5 -8 -10
-17 -10 -26 -1 -63 -35 -63 -59 0 -18 6 -21 40 -21 22 0 40 -4 40 -10 0 -5 18
-10 40 -10 29 0 40 -4 40 -15 0 -26 18 -16 29 15 8 25 7 37 -9 66 -28 49 -25
79 11 114 40 38 49 38 49 0 0 -30 16 -40 36 -20 5 5 35 6 67 3 53 -5 57 -7 57
-32 0 -15 -8 -31 -20 -39 -11 -7 -20 -21 -20 -32 0 -13 -7 -20 -20 -20 -18 0
-20 7 -20 56 0 30 -4 53 -9 50 -4 -3 -6 -28 -3 -56 3 -33 1 -50 -7 -50 -16 0
-14 -35 4 -50 8 -7 15 -20 15 -30 0 -16 -3 -17 -25 -7 -14 7 -25 19 -25 28 0
9 -7 22 -15 29 -12 10 -15 9 -15 -7 0 -10 -5 -24 -12 -31 -9 -9 -8 -12 4 -12
9 0 25 -11 36 -25 21 -26 48 -33 54 -14 5 16 109 -5 120 -25 10 -19 35 -21 40
-4 3 8 11 9 24 3 18 -8 18 -9 -3 -12 -35 -6 -27 -21 17 -34 22 -7 40 -17 41
-23 0 -6 4 -1 9 12 13 32 30 27 30 -8 0 -30 1 -30 54 -30 44 0 55 4 59 18 4
16 5 16 6 0 1 -25 16 -22 18 3 1 11 8 27 15 36 7 8 17 25 23 37 9 17 19 21 60
21 32 0 54 5 63 15 11 13 13 13 23 -3 14 -23 23 -16 51 39 12 26 33 54 45 64
18 14 23 28 23 64 l0 46 -39 0 c-25 0 -41 -5 -43 -14 -2 -9 -9 -11 -23 -5 -19
8 -19 8 3 15 12 3 22 14 22 25 0 15 7 19 40 19 26 0 40 5 40 13 0 9 12 11 40
9 39 -4 40 -3 40 26 0 17 5 34 11 37 6 4 9 29 8 56 -2 39 2 53 19 72 14 15 22
36 22 60 0 42 19 51 21 10 1 -26 2 -26 9 6 4 18 13 43 18 55 6 11 13 32 16 46
3 14 19 33 35 43 34 20 60 82 42 100 -13 13 -15 47 -2 47 5 0 11 10 13 23 2
12 13 26 25 32 12 5 21 16 20 25 -2 27 24 80 39 80 10 0 14 13 14 43 -1 38 -2
40 -15 23 -7 -10 -18 -15 -24 -12 -5 4 -15 -3 -21 -14 -6 -12 -29 -39 -51 -60
-21 -21 -39 -43 -39 -49 0 -6 -7 -11 -15 -11 -8 0 -22 -11 -31 -25 -18 -28
-34 -33 -34 -10 0 22 -25 18 -42 -6 -10 -16 -27 -23 -66 -27 -29 -2 -52 -1
-52 4 0 5 -15 9 -34 10 -24 0 -41 8 -59 29 l-24 29 21 17 c17 15 19 20 8 31
-11 11 -16 9 -30 -10 -14 -18 -20 -20 -30 -10 -9 9 -12 9 -12 0 0 -21 -41 -14
-47 8 -3 11 -10 20 -15 20 -14 0 -38 27 -38 42 1 22 24 45 40 40 8 -2 25 -14
38 -25 l22 -20 0 30 c0 23 5 32 23 37 33 9 38 7 35 -10 -2 -10 3 -19 10 -21 6
-3 12 3 12 13 0 15 7 16 60 11 43 -5 59 -3 57 5 -1 7 27 16 75 22 42 7 79 14
81 16 10 11 47 95 47 106 0 7 6 15 13 18 10 5 10 7 0 12 -18 8 -16 34 1 34 8
0 28 11 44 25 17 14 35 25 41 25 6 0 11 14 11 30 0 23 5 30 19 30 18 0 31 25
31 64 0 16 -5 18 -40 12 -35 -5 -40 -4 -40 13 0 11 -6 21 -12 24 -9 3 -10 10
-3 23 6 11 10 50 10 87 0 54 -4 70 -17 78 -9 5 -15 16 -12 23 14 37 -33 70
-111 78 -16 2 -46 11 -65 20 -78 34 -87 37 -99 25 -6 -6 -11 -20 -11 -31 -1
-57 -38 -93 -89 -84 -19 3 -20 4 -4 37 15 29 18 31 28 17 19 -25 25 -19 24 22
-1 20 0 45 2 56 5 25 -28 47 -41 27 -7 -12 -10 -9 -15 12 -4 15 -5 36 -2 47 4
15 0 20 -15 20 -16 0 -19 -5 -13 -29 3 -17 2 -32 -4 -36 -17 -10 -25 25 -13
57 5 15 6 26 1 22 -11 -7 -39 20 -39 38 0 8 -4 6 -11 -5 -9 -16 -12 -16 -32
-2 -31 21 -37 19 -37 -15z m97 -92 c-3 -7 -5 -2 -5 12 0 14 2 19 5 13 2 -7 2
-19 0 -25z m-40 -114 c-3 -3 -12 -4 -19 -1 -8 3 -5 6 6 6 11 1 17 -2 13 -5z
m78 -34 c-3 -5 -12 -7 -20 -3 -21 7 -19 13 6 13 11 0 18 -4 14 -10z m2 -197
c4 -10 11 -21 16 -24 5 -4 6 -12 2 -18 -5 -9 -11 -9 -23 1 -13 11 -14 10 -8
-14 6 -27 -6 -39 -19 -18 -3 6 -13 10 -21 10 -8 0 -12 -5 -9 -10 3 -6 -2 -13
-12 -17 -10 -3 -22 -12 -26 -20 -4 -7 -17 -13 -27 -13 -10 0 -22 -5 -25 -10
-4 -6 -19 -9 -35 -8 -15 1 -34 -3 -42 -9 -20 -15 -66 -24 -73 -14 -3 5 3 12
12 14 10 3 3 5 -14 6 -22 1 -32 -3 -30 -11 3 -19 -103 -19 -125 -1 -9 8 -50
17 -95 20 -76 6 -122 24 -123 49 0 7 -6 11 -12 11 -25 -1 -78 25 -78 38 0 16
86 13 103 -4 6 -6 16 -6 29 2 12 8 21 9 26 2 4 -5 18 -11 32 -12 54 -3 227
-25 263 -33 20 -4 37 -4 37 0 0 4 10 10 23 13 12 3 46 14 76 26 30 11 57 18
62 16 9 -6 82 26 87 38 6 13 22 7 29 -10z m43 7 c0 -5 -2 -10 -4 -10 -3 0 -8
5 -11 10 -3 6 -1 10 4 10 6 0 11 -4 11 -10z m-840 -25 c0 -8 -4 -15 -10 -15
-5 0 -7 7 -4 15 4 8 8 15 10 15 2 0 4 -7 4 -15z m1000 -54 c0 -17 -5 -33 -11
-37 -6 -3 -9 -17 -6 -30 3 -15 0 -24 -9 -24 -7 0 -21 -3 -31 -6 -13 -4 -14 -3
-5 3 7 5 10 17 6 27 -5 13 -9 14 -20 5 -11 -9 -14 -8 -14 1 0 13 70 89 83 90
4 0 7 -13 7 -29z m80 -46 c0 -25 -4 -35 -16 -35 -8 0 -13 -4 -9 -9 10 -17 -13
-22 -35 -9 -33 20 -22 58 20 73 19 7 36 13 38 14 1 0 2 -15 2 -34z m-192 -77
c-3 -7 -13 -15 -24 -17 -16 -3 -17 -1 -5 13 16 19 34 21 29 4z m-988 -68 c0
-5 -4 -10 -10 -10 -5 0 -10 5 -10 10 0 6 5 10 10 10 6 0 10 -4 10 -10z m643
-217 c-7 -2 -19 -2 -25 0 -7 3 -2 5 12 5 14 0 19 -2 13 -5z m77 -43 c0 -5 -2
-10 -4 -10 -3 0 -8 5 -11 10 -3 6 -1 10 4 10 6 0 11 -4 11 -10z m380 -204 c0
-14 -21 -56 -27 -56 -5 0 -8 14 -8 30 0 22 5 30 18 30 9 0 17 -2 17 -4z m20
-25 c0 -6 -4 -13 -10 -16 -5 -3 -10 1 -10 9 0 9 5 16 10 16 6 0 10 -4 10 -9z
m160 -18 c0 -5 -5 -15 -10 -23 -8 -12 -10 -11 -10 8 0 12 5 22 10 22 6 0 10
-3 10 -7z m-205 -183 c3 -5 -1 -10 -10 -10 -9 0 -13 5 -10 10 3 6 8 10 10 10
2 0 7 -4 10 -10z m50 -80 c3 -5 -1 -10 -9 -10 -9 0 -16 5 -16 10 0 6 4 10 9
10 6 0 13 -4 16 -10z m-185 -24 c0 -33 -20 -44 -37 -21 -17 25 -17 33 5 38 30
8 32 7 32 -17z m63 -73 c-13 -2 -33 -2 -45 0 -13 2 -3 4 22 4 25 0 35 -2 23
-4z m-63 -68 c0 -35 16 -47 26 -20 9 22 24 18 24 -6 0 -11 5 -29 10 -40 9 -16
7 -19 -13 -19 -12 0 -28 5 -35 12 -9 9 -12 9 -12 0 0 -7 -4 -12 -10 -12 -5 0
-10 18 -10 39 0 22 -5 41 -11 43 -14 5 0 38 17 38 9 0 14 -12 14 -35z m100 10
c10 -12 10 -15 -4 -15 -9 0 -16 7 -16 15 0 8 2 15 4 15 2 0 9 -7 16 -15z
m-487 -77 c22 -13 0 -18 -26 -5 -31 14 -33 23 -9 50 17 19 17 19 20 -9 2 -16
9 -32 15 -36z m-385 29 c2 -10 -3 -17 -12 -17 -10 0 -16 9 -16 21 0 24 23 21
28 -4z m292 -37 c0 -5 -5 -10 -11 -10 -5 0 -7 5 -4 10 3 6 8 10 11 10 2 0 4
-4 4 -10z m480 -187 c0 -20 -3 -24 -11 -16 -7 7 -9 19 -6 27 10 24 17 19 17
-11z"/>
<path d="M3610 3976 c0 -8 5 -18 10 -21 6 -3 10 3 10 14 0 12 -4 21 -10 21 -5
0 -10 -6 -10 -14z"/>
<path d="M3175 3970 c-9 -14 4 -70 16 -70 5 0 7 16 5 36 -5 41 -11 50 -21 34z"/>
<path d="M3212 3910 c0 -14 2 -19 5 -12 2 6 2 18 0 25 -3 6 -5 1 -5 -13z"/>
<path d="M3225 3871 c-3 -5 -1 -12 5 -16 5 -3 10 1 10 9 0 18 -6 21 -15 7z"/>
<path d="M2720 3669 c-24 -33 -24 -36 5 -41 15 -2 22 6 32 32 8 24 12 29 13
15 1 -15 3 -16 7 -5 3 8 11 18 17 22 6 4 -3 8 -21 8 -24 0 -37 -7 -53 -31z"/>
<path d="M2712 3606 c7 -8 15 -12 17 -11 5 6 -10 25 -20 25 -5 0 -4 -6 3 -14z"/>
<path d="M2766 3538 c-9 -36 -7 -88 4 -88 6 0 10 18 10 40 0 22 4 40 10 40 5
0 7 7 4 15 -9 22 -21 18 -28 -7z"/>
<path d="M4688 3512 c-49 -6 -51 -14 -37 -229 6 -109 14 -220 16 -248 12 -142
0 -363 -21 -377 -8 -5 -7 -8 2 -8 19 0 14 -18 -13 -48 -14 -15 -25 -38 -25
-52 0 -14 -11 -45 -25 -69 -14 -23 -25 -53 -25 -65 0 -13 -9 -31 -20 -41 -11
-10 -23 -36 -27 -57 -3 -22 -12 -45 -19 -53 -8 -7 -14 -19 -14 -25 0 -6 -5 -8
-10 -5 -6 3 -14 -5 -20 -19 -5 -14 -15 -26 -21 -26 -6 0 -9 -7 -5 -15 3 -9 0
-15 -9 -15 -8 0 -15 -5 -15 -11 0 -5 -15 -16 -34 -24 -38 -16 -52 -31 -35 -37
6 -2 -2 -16 -18 -32 -15 -15 -35 -42 -43 -59 -8 -18 -22 -32 -30 -33 -32 -2
-80 -17 -80 -25 0 -5 -11 -9 -24 -9 -34 0 -56 -10 -56 -25 0 -7 -8 -15 -17
-19 -10 -3 -25 -11 -35 -18 -14 -10 -20 -7 -43 20 -19 23 -31 29 -43 23 -9 -4
-32 -15 -50 -24 -19 -9 -47 -17 -63 -17 -16 0 -29 -4 -29 -9 0 -14 -33 -23
-40 -11 -5 7 -11 6 -20 -5 -9 -11 -15 -12 -20 -5 -4 6 -32 14 -63 17 l-57 6
-1 -34 c0 -19 -3 -28 -6 -21 -8 20 -20 14 -27 -13 -6 -25 -36 -36 -36 -13 0 9
-3 9 -12 0 -17 -17 -47 -15 -54 3 -8 21 -64 46 -86 39 -13 -4 -18 0 -18 15 0
18 -6 21 -40 21 -36 0 -40 -2 -40 -25 0 -31 -9 -31 -56 -3 -29 17 -40 19 -55
10 -26 -17 -67 1 -71 30 -2 19 -10 23 -45 26 -32 2 -43 0 -43 -11 0 -8 9 -17
20 -20 14 -4 18 -10 14 -22 -5 -12 -14 -15 -30 -11 -14 4 -24 2 -24 -5 0 -6
12 -10 28 -9 69 5 82 1 82 -25 0 -28 3 -29 29 -15 30 15 71 -9 71 -42 0 -16 5
-28 10 -28 6 0 10 -6 10 -12 0 -9 -17 -14 -50 -15 -28 0 -50 3 -50 8 0 5 -7 9
-15 9 -7 0 -18 6 -22 13 -17 29 -44 35 -84 18 -21 -9 -39 -22 -39 -28 0 -22
-28 -14 -32 8 -3 21 -60 49 -101 49 -9 0 -16 5 -15 12 2 7 -5 12 -14 13 -9 0
-25 8 -35 18 -10 9 -30 27 -45 38 -32 23 -36 53 -10 69 13 9 8 10 -26 5 -47
-6 -95 2 -87 15 3 5 -4 18 -16 29 -13 12 -19 26 -16 35 5 11 0 16 -13 16 -13
0 -20 7 -20 20 0 11 -7 20 -16 20 -8 0 -20 14 -25 30 -6 17 -15 30 -19 30 -4
0 -17 20 -29 45 -12 25 -26 45 -31 45 -6 0 -10 7 -10 15 0 8 -4 15 -9 15 -5 0
-19 24 -30 53 -11 28 -20 46 -20 40 -1 -7 -19 4 -40 25 -56 53 -68 62 -75 55
-3 -4 -6 1 -6 10 0 9 5 17 10 17 6 0 10 14 10 30 0 23 -5 30 -18 30 -16 0 -21
13 -30 73 -6 39 -14 83 -18 97 -12 46 -24 173 -38 420 -8 135 -17 253 -21 263
-10 25 -41 21 -91 -13 -25 -16 -56 -33 -70 -36 -13 -3 -29 -14 -34 -24 -6 -10
-18 -21 -28 -24 -24 -8 -41 -39 -65 -120 -18 -62 -20 -101 -21 -301 -1 -217 0
-234 22 -295 59 -164 126 -269 245 -384 181 -174 205 -196 215 -196 5 0 12 -7
16 -15 5 -15 22 -27 187 -136 79 -53 108 -70 207 -124 21 -12 48 -28 61 -37
13 -10 28 -15 33 -12 4 3 8 0 8 -5 0 -6 6 -11 14 -11 7 0 19 -6 25 -14 7 -8
27 -18 44 -22 18 -3 43 -15 56 -25 13 -11 28 -19 34 -19 9 0 81 -29 175 -71
103 -46 129 -58 168 -74 23 -9 48 -29 58 -46 17 -28 19 -29 98 -29 71 0 87 4
142 32 33 18 63 35 66 38 3 3 30 18 60 34 30 16 57 32 60 36 3 4 17 10 32 13
31 8 142 72 159 93 6 8 17 14 23 14 14 0 148 119 285 253 93 92 128 131 219
246 15 19 39 49 55 67 15 17 27 36 27 40 0 5 23 45 50 89 28 44 50 87 50 97 0
9 3 18 8 20 16 7 52 89 98 223 l49 140 -2 165 c-3 192 -4 212 -26 283 -8 28
-23 86 -33 127 -9 41 -21 83 -25 92 -9 19 -25 50 -43 83 -8 14 -19 19 -38 17z
m-2368 -1213 c0 -17 -4 -28 -10 -24 -5 3 -10 17 -10 31 0 13 5 24 10 24 6 0
10 -14 10 -31z m1860 -389 c13 -8 13 -11 1 -22 -11 -10 -14 -10 -18 0 -3 6
-11 12 -19 12 -8 0 -14 5 -14 10 0 13 30 13 50 0z m-85 -99 c3 -5 1 -12 -5
-16 -5 -3 -10 1 -10 9 0 18 6 21 15 7z m-1035 -130 c0 -6 -4 -13 -10 -16 -5
-3 -10 1 -10 9 0 9 5 16 10 16 6 0 10 -4 10 -9z m140 -11 c0 -5 -4 -10 -10
-10 -5 0 -10 5 -10 10 0 6 5 10 10 10 6 0 10 -4 10 -10z m247 -72 c-3 -8 -6
-5 -6 6 -1 11 2 17 5 13 3 -3 4 -12 1 -19z"/>
<path d="M4400 3380 c0 -5 7 -10 16 -10 8 0 12 5 9 10 -3 6 -10 10 -16 10 -5
0 -9 -4 -9 -10z"/>
<path d="M4320 3311 c0 -12 6 -21 16 -21 9 0 14 7 12 17 -5 25 -28 28 -28 4z"/>
<path d="M4327 3253 c-11 -11 -8 -43 4 -43 8 0 8 -4 -1 -15 -6 -8 -10 -20 -8
-26 7 -22 47 46 41 69 -5 21 -23 29 -36 15z"/>
<path d="M4240 3230 c0 -13 7 -20 20 -20 23 0 26 10 8 28 -18 18 -28 15 -28
-8z"/>
<path d="M4217 3102 c-9 -18 -17 -39 -17 -47 0 -8 -5 -15 -11 -15 -13 0 -8
-42 6 -47 6 -2 15 7 20 19 6 13 16 22 23 21 6 -2 9 4 5 13 -3 9 0 20 8 25 12
7 12 12 1 30 -14 21 -13 22 27 16 23 -3 41 -1 41 3 0 4 -19 10 -43 11 -40 4
-44 2 -60 -29z"/>
<path d="M2540 2956 c0 -8 5 -18 10 -21 6 -3 10 3 10 14 0 12 -4 21 -10 21 -5
0 -10 -6 -10 -14z"/>
<path d="M2580 2951 c0 -11 -4 -23 -10 -26 -13 -8 -13 -75 0 -75 5 0 15 9 22
20 15 23 48 27 48 5 0 -8 5 -15 12 -15 6 0 20 -8 30 -17 17 -15 84 -21 97 -8
7 7 -41 55 -54 55 -6 0 -21 14 -33 30 -13 17 -29 30 -37 30 -8 0 -15 5 -15 10
0 6 -13 10 -30 10 -23 0 -30 -5 -30 -19z"/>
<path d="M2788 2813 c6 -2 12 -21 12 -40 0 -29 -3 -34 -17 -29 -9 4 -20 2 -23
-5 -4 -6 -18 -9 -31 -6 l-24 4 23 8 c28 9 24 29 -7 33 -12 2 -25 10 -28 18 -3
8 -11 14 -19 14 -10 0 -11 -6 -4 -25 5 -14 7 -32 4 -40 -4 -10 0 -15 10 -15 9
0 16 -5 16 -11 0 -17 27 -39 47 -39 25 0 43 19 36 37 -4 11 0 13 21 7 21 -5
25 -3 20 10 -4 11 -1 16 10 16 9 0 16 -4 16 -10 0 -5 16 -10 36 -10 29 0 35 3
30 16 -3 9 -6 18 -6 20 0 2 -7 4 -15 4 -8 0 -15 4 -15 8 0 13 -57 42 -82 41
-12 0 -17 -3 -10 -6z"/>
<path d="M3016 2661 c-3 -5 1 -11 9 -15 9 -3 15 0 15 9 0 16 -16 20 -24 6z"/>
<path d="M2781 2596 c-13 -14 -19 -26 -13 -30 6 -3 17 1 25 9 9 8 23 15 31 15
9 0 16 7 16 15 0 22 -32 17 -59 -9z"/>
<path d="M2910 2475 c0 -8 5 -15 10 -15 6 0 10 7 10 15 0 8 -4 15 -10 15 -5 0
-10 -7 -10 -15z"/>
<path d="M4560 2479 c0 -5 5 -7 10 -4 6 3 10 8 10 11 0 2 -4 4 -10 4 -5 0 -10
-5 -10 -11z"/>
<path d="M2599 2452 c-18 -21 -14 -42 8 -42 10 0 13 6 9 15 -3 9 1 18 9 21 8
4 15 10 15 15 0 15 -25 10 -41 -9z"/>
<path d="M2686 2433 c-12 -12 -6 -23 13 -23 11 0 22 -8 24 -17 4 -14 5 -13 6
4 1 22 -30 48 -43 36z"/>
<path d="M2881 2424 c0 -11 3 -14 6 -6 3 7 2 16 -1 19 -3 4 -6 -2 -5 -13z"/>
<path d="M2951 2424 c0 -11 3 -14 6 -6 3 7 2 16 -1 19 -3 4 -6 -2 -5 -13z"/>
<path d="M2840 2420 c0 -5 5 -10 11 -10 5 0 7 5 4 10 -3 6 -8 10 -11 10 -2 0
-4 -4 -4 -10z"/>
<path d="M2835 2381 c-3 -6 -14 -11 -24 -11 -10 0 -24 -7 -31 -15 -20 -24 6
-41 56 -36 35 2 44 0 44 -13 0 -9 4 -16 9 -16 15 0 32 27 26 42 -4 11 2 18 19
22 14 3 26 13 26 21 0 8 -3 15 -6 15 -10 0 -68 -34 -76 -44 -3 -5 -8 1 -10 14
-3 26 -22 37 -33 21z"/>
<path d="M2962 2293 l1 -48 4 42 c4 40 6 42 41 46 l37 4 -42 1 -43 2 2 -47z"/>
<path d="M2840 2270 c-12 -8 -10 -10 8 -10 13 0 20 4 17 10 -7 12 -6 12 -25 0z"/>
<path d="M4088 2253 c6 -2 18 -2 25 0 6 3 1 5 -13 5 -14 0 -19 -2 -12 -5z"/>
<path d="M2848 2243 c6 -2 18 -2 25 0 6 3 1 5 -13 5 -14 0 -19 -2 -12 -5z"/>
<path d="M2784 2225 c-4 -8 -3 -23 1 -32 8 -17 8 -17 12 0 3 9 9 17 14 17 5 0
9 7 9 15 0 8 -7 15 -15 15 -9 0 -18 -7 -21 -15z"/>
<path d="M3165 2197 c-4 -10 -5 -21 -1 -24 10 -10 18 4 13 24 -4 17 -4 17 -12
0z"/>
<path d="M2760 2100 c0 -5 16 -10 36 -10 21 0 33 4 29 10 -3 6 -19 10 -36 10
-16 0 -29 -4 -29 -10z"/>
<path d="M3298 1913 c12 -2 32 -2 45 0 12 2 2 4 -23 4 -25 0 -35 -2 -22 -4z"/>
<path d="M3280 1880 c0 -5 18 -10 40 -10 22 0 40 5 40 10 0 6 -18 10 -40 10
-22 0 -40 -4 -40 -10z"/>
<path d="M3680 1874 c0 -9 5 -14 12 -12 18 6 21 28 4 28 -9 0 -16 -7 -16 -16z"/>
<path d="M2975 1790 c-4 -6 8 -10 29 -10 20 0 36 5 36 10 0 6 -13 10 -29 10
-17 0 -33 -4 -36 -10z"/>
<path d="M3600 1216 c0 -14 5 -28 10 -31 16 -10 11 -25 -8 -25 -29 0 -59 -27
-58 -52 1 -20 6 -23 36 -20 36 2 76 -20 66 -36 -12 -20 20 -32 53 -21 22 8 36
8 43 1 9 -9 32 -6 96 13 12 4 22 13 22 20 0 17 -95 93 -137 111 -18 8 -33 19
-33 24 0 6 -8 10 -19 10 -10 0 -24 7 -31 15 -19 23 -40 18 -40 -9z"/>
<path d="M3148 1149 c-16 -11 -28 -27 -28 -35 0 -8 -4 -14 -10 -14 -5 0 -10
-9 -10 -19 0 -28 31 -16 57 22 45 65 41 83 -9 46z"/>
<path d="M4005 960 c-3 -5 1 -10 10 -10 9 0 13 5 10 10 -3 6 -8 10 -10 10 -2
0 -7 -4 -10 -10z"/>
</g>
</svg>

